<svg xmlns="http://www.w3.org/2000/svg" viewBox="0 0 512 512" role="img" aria-label="EstacionAR SFVC">
  <rect width="512" height="512" rx="112" fill="#163A63"/>
  <rect x="0" y="352" width="512" height="160" fill="#00A6D6"/>
  <rect x="352" y="0" width="160" height="176" fill="#F28C00"/>
  <path d="M139 306h38m158 0h38M126 306h-24c-12 0-22-10-22-22v-58c0-13 4-25 12-35l28-55c7-14 21-22 37-22h129c18 0 35 8 47 21l42 46c31 7 57 17 57 47v56c0 12-10 22-22 22h-25" fill="none" stroke="#fff" stroke-width="28" stroke-linecap="round" stroke-linejoin="round"/>
  <circle cx="207" cy="306" r="36" fill="#163A63" stroke="#fff" stroke-width="24"/>
  <circle cx="331" cy="306" r="36" fill="#163A63" stroke="#fff" stroke-width="24"/>
</svg>
