<svg xmlns="http://www.w3.org/2000/svg" viewBox="0 0 48 48" width="512" height="512" role="img" aria-label="EstacionAR">
  <rect width="48" height="48" rx="11" fill="#0FB6CE" />
  <g transform="translate(11.5 11.5) scale(1.05)" stroke="#0A1A2F" stroke-width="2.3" stroke-linecap="round" stroke-linejoin="round" fill="none">
    <path d="M19 17h2c.6 0 1-.4 1-1v-3c0-.9-.7-1.7-1.5-1.9C18.7 10.6 16 10 16 10s-1.3-1.4-2.2-2.3c-.5-.4-1.1-.7-1.8-.7H5c-.6 0-1.1.4-1.4.9l-1.4 2.9A3.7 3.7 0 0 0 2 12v4c0 .6.4 1 1 1h2" />
    <circle cx="7" cy="17" r="2" fill="#0FB6CE" />
    <circle cx="17" cy="17" r="2" fill="#0FB6CE" />
  </g>
</svg>
